<?xml version="1.0" encoding="UTF-8" standalone="no"?>
<svg width="96px" height="24px" viewBox="0 0 96 24" version="1.1" xmlns="http://www.w3.org/2000/svg" xmlns:xlink="http://www.w3.org/1999/xlink">
    <!-- Generator: Sketch 41.2 (35397) - http://www.bohemiancoding.com/sketch -->
    <title>SL Logo Copy</title>
    <desc>Created with Sketch.</desc>
    <defs></defs>
    <g id="Symbols" stroke="none" stroke-width="1" fill="none" fill-rule="evenodd">
        <g id="SL-Logo-Copy" fill="#FFFFFF">
            <g id="Group-8">
                <path d="M11.9092018,13.85 L11.9092018,13.85 C9.10703669,11.8 7.00541284,8.3 8.70672738,5.5 L8.70672738,5.5 C9.45730733,4.55 10.4080419,3.8 11.5088925,3.15 C11.6089698,3.1 11.7590858,3.05 11.8591632,3 L11.8091245,3 C17.0131455,0.1 24.6190223,0.2 24.6190223,0.2 C24.6190223,0.2 11.2586992,-1.35 4.05313171,5.5 C2.65204915,6.7 1.55119856,8.25 0.950734599,10 L0.950734599,10 L0.950734599,10 C0.450347968,11.4 0.250193316,13 0.400309305,14.6 C0.750579947,18.2 2.8522038,21.2 5.80448492,22.85 C6.80525818,23.5 8.0061861,23.8 9.25715268,23.65 C12.2594725,23.35 14.411135,20.7 14.1609417,17.7 C13.960787,16.1 13.1101297,14.75 11.9092018,13.85 Z" id="Shape"></path>
                <path d="M16.7629521,4.75 C16.7129135,4.75 11.3087379,7 14.6613283,10.65 C17.5135321,13.7 18.9146147,15 18.0639574,19 C17.7136867,20.65 16.7129135,22.1 15.0616376,23.3 C19.2148466,21.55 21.9169344,17.25 21.4665865,12.5 C21.1663545,9.25 19.3649626,6.45 16.7629521,4.75 Z" id="Shape"></path>
                <g id="SalesLoft-Logo-Text" transform="translate(30.000000, 5.000000)">
                    <g id="Group">
                        <path d="M6.83329614,4.05759182 C6.62030693,3.80247683 6.32212204,3.58988101 5.9813393,3.46232351 C5.59795872,3.33476602 5.25717599,3.24972769 4.95899109,3.24972769 C4.78859973,3.24972769 4.57561052,3.29224685 4.36262131,3.33476602 C4.1496321,3.37728518 3.97924073,3.46232351 3.80884936,3.54736184 C3.63845799,3.63240017 3.46806662,3.75995767 3.38287094,3.93003433 C3.25507741,4.10011099 3.21247957,4.27018765 3.21247957,4.48278348 C3.21247957,4.8229368 3.3402731,5.12057095 3.59586015,5.29064761 C3.8514472,5.46072428 4.19222994,5.63080094 4.61820836,5.75835843 C5.04418678,5.88591593 5.4701652,6.01347342 5.93874146,6.14103092 C6.40731772,6.26858841 6.83329614,6.48118424 7.25927456,6.69378007 C7.68525298,6.94889506 7.98343788,7.24652921 8.28162277,7.67172087 C8.53720982,8.09691252 8.66500335,8.64966166 8.66500335,9.32996831 C8.66500335,9.96775579 8.53720982,10.5630241 8.28162277,11.0307349 C8.02603572,11.5409649 7.68525298,11.9236374 7.3018724,12.2637907 C6.87589398,12.603944 6.40731772,12.8165399 5.85354578,12.9866165 C5.29977383,13.1566932 4.70340404,13.1992123 4.10703425,13.1992123 C3.3402731,13.1992123 2.61610978,13.0716548 1.97714215,12.859059 C1.33817452,12.6464632 0.699206893,12.2637907 0.145434947,11.7110416 L2.01974,9.67012163 C2.27532705,10.010275 2.61610978,10.3079091 3.0420882,10.4779858 C3.46806662,10.6905816 3.8514472,10.7756199 4.32002346,10.7756199 C4.53301267,10.7756199 4.74600188,10.7331008 4.95899109,10.6905816 C5.1719803,10.6480624 5.38496951,10.5630241 5.55536088,10.4779858 C5.72575225,10.3929474 5.85354578,10.2653899 5.9813393,10.0953133 C6.06653499,9.92523662 6.15173067,9.75515996 6.15173067,9.54256413 C6.15173067,9.20241081 6.02393714,8.90477666 5.72575225,8.69218083 C5.4701652,8.479585 5.12938246,8.30950834 4.70340404,8.18195085 C4.27742562,8.05439335 3.8514472,7.88431669 3.38287094,7.7567592 C2.91429468,7.6292017 2.44571842,7.41660587 2.06233784,7.16149088 C1.63635942,6.90637589 1.29557668,6.60874174 1.03998963,6.18355008 C0.784402577,5.8008776 0.614011209,5.24812845 0.614011209,4.61034097 C0.614011209,3.97255349 0.741804735,3.41980435 0.997391787,2.95209353 C1.25297884,2.48438271 1.59376158,2.05919106 2.01974,1.7615569 C2.44571842,1.42140358 2.91429468,1.20880776 3.46806662,1.0387311 C4.02183857,0.868654434 4.57561052,0.783616104 5.1719803,0.783616104 C5.85354578,0.783616104 6.49251341,0.868654434 7.13148104,1.08125026 C7.77044867,1.25132692 8.32422061,1.59148024 8.83539472,2.01667189 L6.83329614,4.05759182 Z" id="Shape"></path>
                        <path d="M14.9268861,11.9661565 C14.6287012,12.3913482 14.2453206,12.7315015 13.7767444,12.9015782 C13.3081681,13.0716548 12.8395919,13.1992123 12.3284178,13.1992123 C11.9450372,13.1992123 11.6042544,13.1566932 11.2208739,13.0291357 C10.8800911,12.9440973 10.5393084,12.7740207 10.2837213,12.5614249 C10.0281343,12.348829 9.81514508,12.093714 9.64475371,11.7960799 C9.47436235,11.4984457 9.4317645,11.1157732 9.4317645,10.6905816 C9.4317645,10.2228708 9.51696019,9.84019829 9.68735155,9.50004497 C9.85774292,9.15989165 10.11333,8.90477666 10.368917,8.69218083 C10.6671019,8.479585 11.0078847,8.30950834 11.3912652,8.18195085 C11.7746458,8.05439335 12.1580264,7.96935502 12.5840048,7.92683586 C13.0099832,7.88431669 13.3933638,7.84179753 13.8193422,7.84179753 L14.9268861,7.84179753 C14.9268861,7.41660587 14.7564948,7.03393339 14.4583099,6.7788184 C14.160125,6.52370341 13.7767444,6.39614591 13.350766,6.39614591 C12.9247875,6.39614591 12.541407,6.48118424 12.2432221,6.6512609 C11.9024393,6.82133756 11.6042544,7.07645255 11.3486674,7.37408671 L10.0281343,6.01347342 C10.4967106,5.58828177 11.0504825,5.24812845 11.6468523,5.03553262 C12.2858199,4.8229368 12.9247875,4.6953793 13.606353,4.6953793 C14.3305163,4.6953793 14.9268861,4.78041763 15.4380602,4.95049429 C15.9066365,5.12057095 16.2900171,5.41820511 16.588202,5.75835843 C16.8863869,6.09851175 17.0567782,6.56622257 17.1845717,7.07645255 C17.3123653,7.58668253 17.3549631,8.18195085 17.3549631,8.86225749 L17.3549631,12.9866165 L15.0546796,12.9866165 L15.0546796,11.9661565 L14.9268861,11.9661565 Z M14.3305163,9.41500664 C14.160125,9.41500664 13.9045379,9.41500664 13.606353,9.4575258 C13.3081681,9.4575258 13.0525811,9.54256413 12.796994,9.5850833 C12.541407,9.67012163 12.3284178,9.79767912 12.1154285,9.92523662 C11.9450372,10.0953133 11.8598415,10.3079091 11.8598415,10.5630241 C11.8598415,10.8606583 11.987635,11.0732541 12.2432221,11.2433307 C12.4988091,11.3708882 12.7543962,11.4559266 13.0525811,11.4559266 C13.3081681,11.4559266 13.5211573,11.4134074 13.7767444,11.3708882 C13.9897336,11.2858499 14.2027228,11.2008116 14.3731142,11.0732541 C14.5435055,10.9456966 14.7138969,10.7756199 14.7990926,10.6055433 C14.8842883,10.4354666 14.969484,10.1803516 14.969484,9.92523662 L14.969484,9.37248747 L14.3305163,9.37248747 L14.3305163,9.41500664 Z" id="Shape"></path>
                        <polygon id="Shape" points="18.4199092 0.358424452 20.9331818 0.358424452 20.9331818 12.9866165 18.4199092 12.9866165"></polygon>
                        <path d="M30.0065222,11.5834841 C29.6231416,12.093714 29.1119675,12.4763865 28.4729999,12.7740207 C27.8766301,13.0716548 27.2376625,13.1992123 26.556097,13.1992123 C25.9171294,13.1992123 25.3633574,13.114174 24.8095855,12.9015782 C24.2558135,12.6889824 23.7872373,12.4338674 23.3612588,12.0511949 C22.9352804,11.6685224 22.6370955,11.2433307 22.3815085,10.6905816 C22.1685193,10.1803516 22.0407257,9.5850833 22.0407257,8.94729582 C22.0407257,8.30950834 22.1685193,7.71424003 22.3815085,7.20401005 C22.5944977,6.69378007 22.9352804,6.22606925 23.3612588,5.84339676 C23.7872373,5.46072428 24.2558135,5.16309012 24.8095855,4.99301346 C25.3633574,4.78041763 25.9597272,4.6953793 26.556097,4.6953793 C27.1524668,4.6953793 27.6636409,4.78041763 28.1322171,4.99301346 C28.6007934,5.20560928 29.0267718,5.46072428 29.3249567,5.84339676 C29.6657395,6.22606925 29.9213265,6.6512609 30.0917179,7.20401005 C30.2621092,7.71424003 30.3473049,8.30950834 30.3473049,8.94729582 L30.3473049,9.71264079 L24.5114006,9.71264079 C24.5965963,10.1803516 24.8095855,10.5630241 25.1503682,10.8606583 C25.4911509,11.1582924 25.9171294,11.2858499 26.3857056,11.2858499 C26.811684,11.2858499 27.1524668,11.2008116 27.4506517,11.0307349 C27.7488366,10.8606583 27.9618258,10.6055433 28.174815,10.3079091 L30.0065222,11.5834841 Z M27.8766301,8.01187419 C27.8766301,7.58668253 27.7488366,7.24652921 27.4506517,6.90637589 C27.1524668,6.60874174 26.7690862,6.43866507 26.3431078,6.43866507 C26.0449229,6.43866507 25.8319337,6.48118424 25.6189445,6.56622257 C25.4059553,6.6512609 25.2355639,6.7788184 25.0651725,6.90637589 C24.8947811,7.03393339 24.8095855,7.20401005 24.7243898,7.37408671 C24.6391941,7.54416337 24.5965963,7.7567592 24.5965963,7.96935502 L27.8766301,7.96935502 L27.8766301,8.01187419 Z" id="Shape"></path>
                        <path d="M36.0980136,7.24652921 C35.714633,6.7788184 35.2460568,6.56622257 34.649687,6.56622257 C34.4366978,6.56622257 34.2237085,6.60874174 34.0107193,6.73629923 C33.7977301,6.82133756 33.7125344,6.99141422 33.7125344,7.24652921 C33.7125344,7.45912504 33.7977301,7.58668253 34.0107193,7.67172087 C34.2237085,7.7567592 34.4792956,7.84179753 34.7774805,7.92683586 C35.0756654,8.01187419 35.4164481,8.09691252 35.7998287,8.13943168 C36.1832093,8.22447001 36.4813942,8.35202751 36.8221769,8.52210417 C37.1203618,8.69218083 37.4185467,8.94729582 37.5889381,9.24492998 C37.8019273,9.54256413 37.887123,9.96775579 37.887123,10.4779858 C37.887123,10.9882158 37.7593294,11.4134074 37.5463402,11.7535607 C37.333351,12.093714 37.0351661,12.348829 36.6517855,12.5614249 C36.3110028,12.7740207 35.8850244,12.9015782 35.459046,12.9866165 C35.0330675,13.0716548 34.5644913,13.114174 34.1385129,13.114174 C33.5847409,13.114174 32.9883711,13.0291357 32.4345992,12.859059 C31.8382294,12.6889824 31.3696531,12.3913482 30.9436747,12.0086757 L32.477197,10.3079091 C32.6901862,10.6055433 32.9883711,10.8181391 33.2439582,10.9882158 C33.5421431,11.1582924 33.840328,11.2008116 34.2237085,11.2008116 C34.5218934,11.2008116 34.7774805,11.1582924 34.9904697,11.0732541 C35.2034589,10.9882158 35.3312524,10.8181391 35.3312524,10.6055433 C35.3312524,10.3929474 35.2460568,10.2228708 35.0330675,10.1378324 C34.8200783,10.0527941 34.5644913,9.92523662 34.2663064,9.88271746 C33.9681215,9.79767912 33.6273388,9.71264079 33.2439582,9.67012163 C32.8605776,9.5850833 32.5623927,9.4575258 32.22161,9.28744914 C31.9234251,9.11737248 31.6252402,8.90477666 31.4548488,8.56462333 C31.2418596,8.26698918 31.1566639,7.84179753 31.1566639,7.33156754 C31.1566639,6.86385673 31.2418596,6.43866507 31.4548488,6.09851175 C31.667838,5.75835843 31.9234251,5.46072428 32.22161,5.24812845 C32.5197949,5.03553262 32.9031754,4.86545596 33.3291539,4.73789847 C33.7551323,4.65286014 34.1385129,4.56782181 34.5644913,4.56782181 C35.1182632,4.56782181 35.6294373,4.65286014 36.1832093,4.78041763 C36.7369812,4.95049429 37.2055575,5.20560928 37.5889381,5.63080094 L36.0980136,7.24652921 Z" id="Shape"></path>
                        <polygon id="Shape" points="39.4206453 1.16628859 40.8263741 1.16628859 40.8263741 11.6685224 46.2363 11.6685224 46.2363 12.9866165 39.4206453 12.9866165"></polygon>
                        <path d="M46.6622784,9.07485332 C46.6622784,8.479585 46.7474741,7.92683586 46.9604633,7.41660587 C47.1734525,6.90637589 47.4716374,6.48118424 47.8124201,6.14103092 C48.1958007,5.8008776 48.6217791,5.50324344 49.1329532,5.29064761 C49.6441273,5.07805179 50.1978993,4.99301346 50.7942691,4.99301346 C51.3906389,4.99301346 51.9444108,5.07805179 52.4555849,5.29064761 C52.966759,5.50324344 53.3927374,5.75835843 53.776118,6.14103092 C54.1594986,6.52370341 54.4150857,6.94889506 54.6280749,7.41660587 C54.8410641,7.92683586 54.9262598,8.479585 54.9262598,9.07485332 C54.9262598,9.67012163 54.8410641,10.2228708 54.6280749,10.7331008 C54.4150857,11.2433307 54.1169008,11.6685224 53.776118,12.0086757 C53.3927374,12.3913482 52.966759,12.6464632 52.4555849,12.859059 C51.9444108,13.0716548 51.3906389,13.1566932 50.7942691,13.1566932 C50.1978993,13.1566932 49.6441273,13.0716548 49.1329532,12.859059 C48.6217791,12.6464632 48.1958007,12.3913482 47.8124201,12.0086757 C47.4290396,11.6685224 47.1734525,11.2008116 46.9604633,10.7331008 C46.7474741,10.2653899 46.6622784,9.67012163 46.6622784,9.07485332 Z M48.0680072,9.07485332 C48.0680072,9.50004497 48.1532029,9.88271746 48.2809964,10.2228708 C48.4087899,10.5630241 48.5791813,10.8606583 48.8347684,11.1582924 C49.0903554,11.4134074 49.3885403,11.6260032 49.729323,11.7960799 C50.0701058,11.9661565 50.4534863,12.0086757 50.8794648,12.0086757 C51.3054432,12.0086757 51.6888238,11.9236374 52.0296065,11.7960799 C52.3703892,11.6260032 52.6685741,11.4559266 52.9241612,11.1582924 C53.1797482,10.9031774 53.3501396,10.6055433 53.4779331,10.2228708 C53.6057267,9.88271746 53.6909223,9.50004497 53.6909223,9.07485332 C53.6909223,8.64966166 53.6057267,8.26698918 53.4779331,7.92683586 C53.3501396,7.58668253 53.1797482,7.28904838 52.9241612,6.99141422 C52.6685741,6.73629923 52.3703892,6.52370341 52.0296065,6.35362674 C51.6888238,6.18355008 51.3054432,6.14103092 50.8794648,6.14103092 C50.4534863,6.14103092 50.0701058,6.22606925 49.729323,6.35362674 C49.3885403,6.52370341 49.0903554,6.69378007 48.8347684,6.99141422 C48.5791813,7.24652921 48.4087899,7.54416337 48.2809964,7.92683586 C48.110605,8.26698918 48.0680072,8.64966166 48.0680072,9.07485332 Z" id="Shape"></path>
                        <path d="M57.3117389,6.26858841 L55.6078252,6.26858841 L55.6078252,5.16309012 L57.3117389,5.16309012 L57.3117389,3.41980435 C57.3117389,2.95209353 57.3543368,2.48438271 57.4395324,2.10171023 C57.5247281,1.71903774 57.6951195,1.37888442 57.9081087,1.08125026 C58.1210979,0.783616104 58.4192828,0.571020278 58.7600655,0.400943617 C59.1008483,0.230866957 59.5694245,0.145828626 60.0805986,0.145828626 C60.25099,0.145828626 60.4213814,0.145828626 60.6343706,0.188347791 C60.804762,0.230866957 60.9751533,0.273386122 61.1029468,0.358424452 L60.9325555,1.50644191 C60.6343706,1.37888442 60.3361857,1.33636525 60.0380008,1.33636525 C59.6972181,1.33636525 59.441631,1.37888442 59.2712396,1.50644191 C59.1008483,1.63399941 58.9304569,1.80407607 58.8452612,1.97415273 C58.7600655,2.18674856 58.6748699,2.44186355 58.6748699,2.69697854 C58.6748699,2.99461269 58.632272,3.29224685 58.632272,3.63240017 L58.632272,5.12057095 L60.5491749,5.12057095 L60.5491749,6.22606925 L58.632272,6.22606925 L58.632272,12.9440973 L57.3117389,12.9440973 L57.3117389,6.26858841 Z" id="Shape"></path>
                        <path d="M65.7461116,6.26858841 L63.4458282,6.26858841 L63.4458282,10.1803516 L63.4458282,10.9031774 C63.4458282,11.1157732 63.488426,11.3283691 63.5736217,11.4559266 C63.6588174,11.6260032 63.7866109,11.7535607 63.9144044,11.8385991 C64.0847958,11.9236374 64.297785,11.9661565 64.5959699,11.9661565 C64.7663613,11.9661565 64.9793505,11.9236374 65.1923397,11.8811182 C65.4053289,11.8385991 65.5757203,11.7535607 65.7461116,11.6685224 L65.7887095,12.859059 C65.5757203,12.9440973 65.3201332,13.0291357 65.0645462,13.0716548 C64.8089591,13.114174 64.553372,13.1566932 64.297785,13.1566932 C63.8292087,13.1566932 63.4458282,13.114174 63.1902411,12.9866165 C62.8920562,12.859059 62.679067,12.6889824 62.5512735,12.4763865 C62.3808821,12.2637907 62.2956864,11.9661565 62.2530886,11.6685224 C62.2104907,11.3283691 62.1678929,10.9882158 62.1678929,10.5630241 L62.1678929,6.26858841 L60.4639792,6.26858841 L60.4639792,5.16309012 L62.1678929,5.16309012 L62.1678929,2.95209353 L63.488426,2.95209353 L63.488426,5.16309012 L65.7887095,5.16309012 L65.7887095,6.26858841 L65.7461116,6.26858841 Z" id="Shape"></path>
                    </g>
                </g>
            </g>
        </g>
    </g>
</svg>